<svg width="1701" height="298" viewBox="0 0 1701 298" fill="none" xmlns="http://www.w3.org/2000/svg">
<path d="M135.696 174.083H45.2318L28.5675 220.208H1.65577e-06L74.9896 13.9862H106.235L180.927 220.208H152.36L135.696 174.083ZM127.958 152.062L90.4637 47.3149L52.9689 152.062H127.958ZM240.689 6.9277e-06V220.208H213.61V6.9277e-06H240.689ZM313.921 87.1903C319.278 77.8662 327.213 70.1292 337.728 63.9792C348.44 57.6309 360.84 54.4567 374.925 54.4567C389.407 54.4567 402.5 57.9285 414.205 64.872C426.108 71.8155 435.432 81.6355 442.178 94.3322C448.923 106.83 452.295 121.412 452.295 138.076C452.295 154.542 448.923 169.223 442.178 182.118C435.432 195.013 426.108 205.031 414.205 212.173C402.5 219.315 389.407 222.886 374.925 222.886C361.038 222.886 348.738 219.811 338.025 213.661C327.511 207.313 319.476 199.476 313.921 190.152V297.578H286.842V57.135H313.921V87.1903ZM424.62 138.076C424.62 125.776 422.141 115.063 417.181 105.938C412.221 96.812 405.476 89.8685 396.946 85.1073C388.613 80.346 379.389 77.9654 369.271 77.9654C359.352 77.9654 350.127 80.4452 341.596 85.4049C333.264 90.1661 326.519 97.2088 321.361 106.533C316.401 115.659 313.921 126.272 313.921 138.374C313.921 150.674 316.401 161.486 321.361 170.81C326.519 179.935 333.264 186.978 341.596 191.938C350.127 196.699 359.352 199.08 369.271 199.08C379.389 199.08 388.613 196.699 396.946 191.938C405.476 186.978 412.221 179.935 417.181 170.81C422.141 161.486 424.62 150.574 424.62 138.076ZM568.881 54.1592C581.18 54.1592 592.29 56.8374 602.209 62.1938C612.129 67.3518 619.866 75.188 625.42 85.7024C631.174 96.2169 634.05 109.013 634.05 124.09V220.208H607.268V127.958C607.268 111.691 603.201 99.2918 595.067 90.7613C586.934 82.0323 575.824 77.6678 561.739 77.6678C547.455 77.6678 536.048 82.1315 527.517 91.0588C519.185 99.9862 515.019 112.98 515.019 130.042V220.208H487.939V6.9277e-06H515.019V80.346C520.375 72.0138 527.716 65.5663 537.04 61.0035C546.562 56.4406 557.176 54.1592 568.881 54.1592ZM668.167 138.076C668.167 121.412 671.539 106.83 678.285 94.3322C685.03 81.6355 694.255 71.8155 705.959 64.872C717.862 57.9285 731.055 54.4567 745.537 54.4567C759.821 54.4567 772.22 57.5317 782.734 63.6817C793.249 69.8316 801.085 77.5686 806.243 86.8927V57.135H833.62V220.208H806.243V189.855C800.887 199.377 792.852 207.313 782.139 213.661C771.625 219.811 759.325 222.886 745.24 222.886C730.757 222.886 717.664 219.315 705.959 212.173C694.255 205.031 685.03 195.013 678.285 182.118C671.539 169.223 668.167 154.542 668.167 138.076ZM806.243 138.374C806.243 126.074 803.763 115.361 798.804 106.235C793.844 97.1096 787.099 90.1661 778.568 85.4049C770.236 80.4452 761.011 77.9654 750.894 77.9654C740.776 77.9654 731.551 80.346 723.219 85.1073C714.887 89.8685 708.241 96.812 703.281 105.938C698.322 115.063 695.842 125.776 695.842 138.076C695.842 150.574 698.322 161.486 703.281 170.81C708.241 179.935 714.887 186.978 723.219 191.938C731.551 196.699 740.776 199.08 750.894 199.08C761.011 199.08 770.236 196.699 778.568 191.938C787.099 186.978 793.844 179.935 798.804 170.81C803.763 161.486 806.243 150.674 806.243 138.374ZM1130.12 12.7959L1051.86 220.208H1020.61L942.35 12.7959H971.215L1036.38 191.64L1101.55 12.7959H1130.12ZM1149.7 138.076C1149.7 121.412 1153.07 106.83 1159.81 94.3322C1166.56 81.6355 1175.78 71.8155 1187.49 64.872C1199.39 57.9285 1212.58 54.4567 1227.07 54.4567C1241.35 54.4567 1253.75 57.5317 1264.26 63.6817C1274.78 69.8316 1282.61 77.5686 1287.77 86.8927V57.135H1315.15V220.208H1287.77V189.855C1282.42 199.377 1274.38 207.313 1263.67 213.661C1253.15 219.811 1240.85 222.886 1226.77 222.886C1212.29 222.886 1199.19 219.315 1187.49 212.173C1175.78 205.031 1166.56 195.013 1159.81 182.118C1153.07 169.223 1149.7 154.542 1149.7 138.076ZM1287.77 138.374C1287.77 126.074 1285.29 115.361 1280.33 106.235C1275.37 97.1096 1268.63 90.1661 1260.1 85.4049C1251.77 80.4452 1242.54 77.9654 1232.42 77.9654C1222.31 77.9654 1213.08 80.346 1204.75 85.1073C1196.42 89.8685 1189.77 96.812 1184.81 105.938C1179.85 115.063 1177.37 125.776 1177.37 138.076C1177.37 150.574 1179.85 161.486 1184.81 170.81C1189.77 179.935 1196.42 186.978 1204.75 191.938C1213.08 196.699 1222.31 199.08 1232.42 199.08C1242.54 199.08 1251.77 196.699 1260.1 191.938C1268.63 186.978 1275.37 179.935 1280.33 170.81C1285.29 161.486 1287.77 150.674 1287.77 138.374ZM1505.53 57.135V220.208H1478.46V196.104C1473.3 204.436 1466.06 210.983 1456.73 215.744C1447.61 220.307 1437.49 222.588 1426.38 222.588C1413.68 222.588 1402.28 220.009 1392.16 214.851C1382.04 209.495 1374.01 201.559 1368.05 191.045C1362.3 180.531 1359.42 167.735 1359.42 152.657V57.135H1386.21V149.087C1386.21 165.156 1390.27 177.555 1398.41 186.284C1406.54 194.814 1417.65 199.08 1431.74 199.08C1446.22 199.08 1457.62 194.616 1465.96 185.689C1474.29 176.761 1478.46 163.767 1478.46 146.706V57.135H1505.53ZM1578.34 6.9277e-06V220.208H1551.26V6.9277e-06H1578.34ZM1657.52 79.4533V175.571C1657.52 183.506 1659.21 189.16 1662.58 192.533C1665.95 195.707 1671.8 197.294 1680.14 197.294H1700.07V220.208H1675.67C1660.6 220.208 1649.29 216.736 1641.75 209.792C1634.21 202.849 1630.44 191.442 1630.44 175.571V79.4533H1609.31V57.135H1630.44V16.0692H1657.52V57.135H1700.07V79.4533H1657.52Z" fill="url(#paint0_linear_4136_1602)"/>
<defs>
<linearGradient id="paint0_linear_4136_1602" x1="849.689" y1="-54.773" x2="849.689" y2="287.227" gradientUnits="userSpaceOnUse">
<stop offset="0.40069" stop-color="#C4CFE9"/>
<stop offset="1" stop-color="#C4CFE9" stop-opacity="0"/>
</linearGradient>
</defs>
</svg>
