<svg width="175" height="67" viewBox="0 0 175 67" fill="none" xmlns="http://www.w3.org/2000/svg">
<path d="M96.7505 4.61475H104.568V30.2925C104.568 34.5152 103.103 38.0905 100.174 41.02C97.2825 43.911 93.7073 45.3565 89.446 45.3565C85.1865 45.3565 81.6095 43.911 78.7185 41.02C75.8275 38.129 74.382 34.5537 74.382 30.2925C74.382 26.0697 75.8275 22.5137 78.7185 19.6227C81.648 16.6915 85.225 15.2285 89.446 15.2285C92.1463 15.2285 94.5805 15.8252 96.7505 17.0222V4.61475ZM170.819 33.3165H149.305C150.257 36.8917 152.94 38.6802 157.351 38.6802C160.167 38.6802 162.297 37.73 163.742 35.8277L169.677 39.2507C166.861 43.3212 162.717 45.3565 157.238 45.3565C152.52 45.3565 148.734 43.9302 145.882 41.0777C143.029 38.2235 141.601 34.629 141.601 30.2925C141.601 26.0312 143.01 22.456 145.826 19.565C148.601 16.674 152.215 15.2285 156.667 15.2285C160.89 15.2285 164.332 16.674 166.996 19.565C169.734 22.456 171.103 26.0312 171.103 30.2925C171.103 31.0922 171.008 32.1002 170.819 33.3165ZM149.193 27.6115H163.742C163.324 25.746 162.477 24.3197 161.203 23.331C159.929 22.3422 158.417 21.847 156.667 21.847C154.688 21.847 153.053 22.351 151.76 23.359C150.467 24.367 149.611 25.7845 149.193 27.6115ZM107.993 46.8212H115.353C115.353 49.0647 116.076 50.9477 117.521 52.4702C119.005 53.9542 120.85 54.6945 123.057 54.6945C125.263 54.6945 127.108 53.9542 128.592 52.4702C130.074 50.9862 130.818 49.1032 130.818 46.8212H138.178C138.178 51.044 136.714 54.6192 133.784 57.5487C130.893 60.4397 127.318 61.8852 123.057 61.8852C118.795 61.8852 115.218 60.4397 112.329 57.5487C109.438 54.6577 107.993 51.0825 107.993 46.8212ZM133.784 41.02C130.893 43.911 127.318 45.3565 123.057 45.3565C118.795 45.3565 115.218 43.911 112.329 41.02C109.438 38.129 107.993 34.5537 107.993 30.2925C107.993 26.0697 109.438 22.5137 112.329 19.6227C115.259 16.6915 118.834 15.2285 123.057 15.2285C127.279 15.2285 130.855 16.6915 133.784 19.6227C136.714 22.5505 138.178 26.1082 138.178 30.2925C138.178 34.5152 136.714 38.0905 133.784 41.02ZM117.521 35.9415C119.005 37.4255 120.85 38.1675 123.057 38.1675C125.263 38.1675 127.108 37.4255 128.592 35.9415C130.074 34.4592 130.818 32.5745 130.818 30.2925C130.818 28.0105 130.074 26.1275 128.592 24.6435C127.108 23.1595 125.263 22.4175 123.057 22.4175C120.85 22.4175 119.005 23.1595 117.521 24.6435C116.076 26.1642 115.353 28.0472 115.353 30.2925C115.353 32.536 116.076 34.419 117.521 35.9415ZM28.9118 20.4785V4.61475H36.729V44.5585H28.9118V28.0105H12.7278V44.5585H4.85278V20.4785H28.9118ZM70.6738 33.3165H49.161C50.1113 36.8917 52.794 38.6802 57.2058 38.6802C60.0215 38.6802 62.1513 37.73 63.5968 35.8277L69.531 39.2507C66.717 43.3212 62.5695 45.3565 57.092 45.3565C52.3758 45.3565 48.5905 43.9302 45.7363 41.0777C42.8838 38.2235 41.4575 34.629 41.4575 30.2925C41.4575 26.0312 42.8645 22.456 45.6803 19.565C48.4575 16.674 52.0695 15.2285 56.5215 15.2285C60.7443 15.2285 64.1865 16.674 66.85 19.565C69.5888 22.456 70.9573 26.0312 70.9573 30.2925C70.9573 31.0922 70.8628 32.1002 70.6738 33.3165ZM49.0455 27.6115H63.5968C63.1785 25.746 62.3315 24.3197 61.0575 23.331C59.7835 22.3422 58.2715 21.847 56.5215 21.847C54.544 21.847 52.9078 22.351 51.6145 23.359C50.3213 24.367 49.4655 25.7845 49.0455 27.6115ZM83.9108 35.9415C85.3948 37.4255 87.2393 38.1675 89.446 38.1675C91.6528 38.1675 93.4973 37.4255 94.9813 35.9415C96.4653 34.4592 97.2073 32.5745 97.2073 30.2925C97.2073 28.0105 96.4653 26.1275 94.9813 24.6435C93.4973 23.1595 91.6528 22.4175 89.446 22.4175C87.2393 22.4175 85.3948 23.1595 83.9108 24.6435C82.4653 26.1642 81.7425 28.0472 81.7425 30.2925C81.7425 32.536 82.4653 34.419 83.9108 35.9415Z" fill="#0D0D0D"/>
<path fill-rule="evenodd" clip-rule="evenodd" d="M4.85278 4.61475H12.7278V12.488H4.85278V4.61475Z" fill="#4ED49A"/>
</svg>
