<svg width="984" height="278" viewBox="0 0 984 278" fill="none" xmlns="http://www.w3.org/2000/svg">
<path d="M492.25 278V264.5C492.25 247.931 478.819 234.5 462.25 234.5H445.882C437.872 234.5 430.194 231.296 424.559 225.603L399.98 200.768C394.421 195.151 391.303 187.567 391.303 179.665V85.25M391.303 -21.5V85.25M391.303 85.25H317.224C309.214 85.25 301.536 88.4536 295.901 94.1472L199.059 192M199.059 192H-11M199.059 192L185.844 205.353C180.209 211.046 172.531 214.25 164.521 214.25H-11M199.059 192L185.844 178.647C180.209 172.954 172.531 169.75 164.521 169.75H-11" stroke="#BEC5E0" stroke-width="1.5" stroke-dasharray="6 6"/>
<path d="M492.25 278V264.5C492.25 247.931 505.681 234.5 522.25 234.5H538.618C546.628 234.5 554.306 231.296 559.941 225.603L584.52 200.768C590.079 195.151 593.197 187.567 593.197 179.665V85.25M593.197 -21.5V85.25M593.197 85.25H667.276C675.286 85.25 682.964 88.4536 688.599 94.1472L785.441 192M785.441 192H995.5M785.441 192L798.656 205.353C804.291 211.046 811.969 214.25 819.979 214.25H995.5M785.441 192L798.656 178.647C804.291 172.954 811.969 169.75 819.979 169.75H995.5" stroke="#BEC5E0" stroke-width="1.5" stroke-dasharray="6 6"/>
</svg>
