<svg preserveAspectRatio="none" viewBox="0 0 1000 500" width="100%" height="100%" fill="none" xmlns="http://www.w3.org/2000/svg">
  <g stroke="#C0C8E0" stroke-width="1.5" stroke-dasharray="6 8" vector-effect="non-scaling-stroke">
    <path d="M 350 0 L 350 80 Q 350 100 330 100 L 285 100 Q 265 100 250 115 L 145 220 Q 130 235 110 235 L 80 235" />
    <path d="M 650 0 L 650 80 Q 650 100 670 100 L 715 100 Q 735 100 750 115 L 855 220 Q 870 235 890 235 L 920 235" />
    <path d="M 500 500 L 500 400" />
    <path d="M 500 400 Q 500 380 480 380 L 265 380 Q 245 380 230 365 L 145 280 Q 130 265 110 265 L 80 265" />
    <path d="M 500 400 Q 500 380 520 380 L 735 380 Q 755 380 770 365 L 855 280 Q 870 265 890 265 L 920 265" />
    <path d="M 80 250 L 0 250" />
    <path d="M 920 250 L 1000 250" />
  </g>
</svg>
