<svg width="53" height="53" viewBox="0 0 53 53" fill="none" xmlns="http://www.w3.org/2000/svg">
<path d="M38.2232 1.47374H47.4928L41.8766 26.7456C40.786 31.5489 40.0408 34.4964 39.641 35.5881C41.095 42.2836 43.2034 45.6313 45.966 45.6313C49.2377 45.6313 50.928 43.3752 51.037 38.863H53C52.8909 43.0841 52.1094 46.5046 50.6554 49.1246C49.2377 51.7082 47.3656 53 45.0391 53C43.1125 53 41.6766 52.2176 40.7315 50.6529C39.7864 49.0882 38.7685 45.886 37.678 41.0463C33.8975 49.0154 27.7178 53 19.1389 53C13.2864 53 8.6334 50.7257 5.18004 46.1771C1.72668 41.5922 0 35.0422 0 26.5273C0 18.1579 1.89026 11.6444 5.67078 6.98661C9.45131 2.32887 13.9952 0 19.3025 0C23.0466 0 26.1183 1.32818 28.5175 3.98455C30.9167 6.64092 33.0432 10.9712 34.8971 16.9753L38.2232 1.47374ZM33.4249 22.8702C31.7164 17.0117 29.808 12.4449 27.6996 9.16993C25.5912 5.85856 23.0648 4.20288 20.1204 4.20288C13.4681 4.20288 10.142 11.99 10.142 27.5644C10.142 42.3381 13.3227 49.725 19.6842 49.725C25.2095 49.725 29.299 43.2115 31.9527 30.1843L33.4249 22.8702Z" fill="url(#paint0_linear_4272_12699)"/>
<defs>
<linearGradient id="paint0_linear_4272_12699" x1="26.5" y1="0" x2="26.5" y2="53" gradientUnits="userSpaceOnUse">
<stop stop-color="#0D0D0D"/>
<stop offset="1" stop-color="#888C96"/>
</linearGradient>
</defs>
</svg>
