<svg width="24" height="24" viewBox="0 0 24 24" fill="none" xmlns="http://www.w3.org/2000/svg">
<mask id="mask0_4052_1029" style="mask-type:alpha" maskUnits="userSpaceOnUse" x="0" y="0" width="24" height="24">
<rect width="24" height="24" fill="#D9D9D9"/>
</mask>
<g mask="url(#mask0_4052_1029)">
<path d="M11.9998 21.9C11.8665 21.9 11.7415 21.875 11.6248 21.825C11.5081 21.775 11.3998 21.7 11.2998 21.6L5.6998 16.025C5.51647 15.8416 5.4248 15.6083 5.4248 15.325C5.4248 15.0416 5.51647 14.8 5.6998 14.6C5.8998 14.4 6.1373 14.3 6.4123 14.3C6.6873 14.3 6.9248 14.4 7.1248 14.6L10.9998 18.5V12.325C10.9998 12.0416 11.0956 11.8041 11.2873 11.6125C11.479 11.4208 11.7165 11.325 11.9998 11.325C12.2831 11.325 12.5206 11.4208 12.7123 11.6125C12.904 11.8041 12.9998 12.0416 12.9998 12.325V18.5L16.8998 14.6C17.0831 14.4166 17.3123 14.325 17.5873 14.325C17.8623 14.325 18.0998 14.425 18.2998 14.625C18.4831 14.8083 18.5748 15.0416 18.5748 15.325C18.5748 15.6083 18.4831 15.8416 18.2998 16.025L12.6998 21.6C12.5998 21.7 12.4915 21.775 12.3748 21.825C12.2581 21.875 12.1331 21.9 11.9998 21.9ZM11.9998 9.32495C11.7165 9.32495 11.479 9.22912 11.2873 9.03745C11.0956 8.84578 10.9998 8.60828 10.9998 8.32495V7.32495C10.9998 7.04162 11.0956 6.80412 11.2873 6.61245C11.479 6.42078 11.7165 6.32495 11.9998 6.32495C12.2831 6.32495 12.5206 6.42078 12.7123 6.61245C12.904 6.80412 12.9998 7.04162 12.9998 7.32495V8.32495C12.9998 8.60828 12.904 8.84578 12.7123 9.03745C12.5206 9.22912 12.2831 9.32495 11.9998 9.32495ZM11.9998 4.32495C11.7165 4.32495 11.479 4.22912 11.2873 4.03745C11.0956 3.84578 10.9998 3.60828 10.9998 3.32495C10.9998 3.04162 11.0956 2.80412 11.2873 2.61245C11.479 2.42078 11.7165 2.32495 11.9998 2.32495C12.2831 2.32495 12.5206 2.42078 12.7123 2.61245C12.904 2.80412 12.9998 3.04162 12.9998 3.32495C12.9998 3.60828 12.904 3.84578 12.7123 4.03745C12.5206 4.22912 12.2831 4.32495 11.9998 4.32495Z" fill="white"/>
</g>
</svg>
