<svg width="24" height="24" viewBox="0 0 24 24" fill="none" xmlns="http://www.w3.org/2000/svg">
<mask id="mask0_4193_2204" style="mask-type:alpha" maskUnits="userSpaceOnUse" x="0" y="0" width="24" height="24">
<rect width="24" height="24" fill="#D9D9D9"/>
</mask>
<g mask="url(#mask0_4193_2204)">
<path d="M13.7602 22.475C13.3436 22.475 12.9894 22.3292 12.6977 22.0375C12.4061 21.7459 12.2602 21.3917 12.2602 20.975V13.975C12.2602 13.5584 12.4061 13.2042 12.6977 12.9125C12.9894 12.6209 13.3436 12.475 13.7602 12.475H20.7602C21.1769 12.475 21.5311 12.6209 21.8227 12.9125C22.1144 13.2042 22.2602 13.5584 22.2602 13.975V20.975C22.2602 21.3917 22.1144 21.7459 21.8227 22.0375C21.5311 22.3292 21.1769 22.475 20.7602 22.475H13.7602ZM9.33523 21.475C9.08523 21.475 8.88107 21.4042 8.72273 21.2625C8.5644 21.1209 8.46857 20.9417 8.43523 20.725L8.11023 18.325C7.89357 18.2417 7.6894 18.1417 7.49773 18.025C7.30607 17.9084 7.11857 17.7834 6.93523 17.65L5.38523 18.3C4.96857 18.4834 4.5519 18.5 4.13523 18.35C3.71857 18.2 3.39357 17.9334 3.16023 17.55L1.98523 15.5C1.7519 15.1167 1.68523 14.7084 1.78523 14.275C1.88523 13.8417 2.11023 13.4834 2.46023 13.2L3.78523 12.2C3.76857 12.0834 3.76023 11.9709 3.76023 11.8625V11.1875C3.76023 11.0792 3.76857 10.9667 3.78523 10.85L2.46023 9.85002C2.11023 9.56669 1.88523 9.20836 1.78523 8.77502C1.68523 8.34169 1.7519 7.93336 1.98523 7.55002L3.16023 5.50002C3.39357 5.11669 3.71857 4.85002 4.13523 4.70002C4.5519 4.55002 4.96857 4.56669 5.38523 4.75002L6.93523 5.40002C7.11857 5.26669 7.31023 5.14169 7.51023 5.02502C7.71023 4.90836 7.91023 4.80836 8.11023 4.72502L8.33523 3.07502C8.4019 2.64169 8.59773 2.27502 8.92273 1.97502C9.24773 1.67502 9.63523 1.52502 10.0852 1.52502H12.4352C12.8852 1.52502 13.2727 1.67502 13.5977 1.97502C13.9227 2.27502 14.1186 2.64169 14.1852 3.07502L14.4102 4.72502C14.6269 4.80836 14.8311 4.90836 15.0227 5.02502C15.2144 5.14169 15.4019 5.26669 15.5852 5.40002L17.1352 4.75002C17.5519 4.56669 17.9686 4.55002 18.3852 4.70002C18.8019 4.85002 19.1269 5.11669 19.3602 5.50002L20.5352 7.55002C20.7686 7.93336 20.8352 8.34169 20.7352 8.77502C20.6352 9.20836 20.4102 9.56669 20.0602 9.85002L19.4352 10.3C19.3519 10.3667 19.2602 10.4125 19.1602 10.4375C19.0602 10.4625 18.9602 10.475 18.8602 10.475H14.9852C14.8852 10.475 14.7936 10.4417 14.7102 10.375C14.6269 10.3084 14.5686 10.2334 14.5352 10.15C14.2686 9.51669 13.8477 8.99586 13.2727 8.58752C12.6977 8.17919 12.0436 7.97502 11.3102 7.97502C10.3436 7.97502 9.51857 8.31669 8.83523 9.00002C8.1519 9.68336 7.81023 10.5084 7.81023 11.475C7.81023 12.2084 8.00607 12.8625 8.39773 13.4375C8.7894 14.0125 9.3019 14.4334 9.93523 14.7C10.0186 14.7334 10.0936 14.7917 10.1602 14.875C10.2269 14.9584 10.2602 15.05 10.2602 15.15V20.625C10.2602 20.8584 10.1727 21.0584 9.99773 21.225C9.82273 21.3917 9.6019 21.475 9.33523 21.475ZM17.2602 18.475C16.8436 18.475 16.4352 18.5292 16.0352 18.6375C15.6352 18.7459 15.2602 18.9167 14.9102 19.15C14.6936 19.2834 14.5311 19.425 14.4227 19.575C14.3144 19.725 14.2602 19.8834 14.2602 20.05C14.2602 20.1667 14.3019 20.2667 14.3852 20.35C14.4686 20.4334 14.5686 20.475 14.6852 20.475H19.9352C20.0186 20.475 20.0936 20.4334 20.1602 20.35C20.2269 20.2667 20.2602 20.1667 20.2602 20.05C20.2602 19.8834 20.2061 19.725 20.0977 19.575C19.9894 19.425 19.8269 19.2834 19.6102 19.15C19.2602 18.9167 18.8852 18.7459 18.4852 18.6375C18.0852 18.5292 17.6769 18.475 17.2602 18.475ZM17.2602 17.475C17.6769 17.475 18.0311 17.3292 18.3227 17.0375C18.6144 16.7459 18.7602 16.3917 18.7602 15.975C18.7602 15.5584 18.6144 15.2042 18.3227 14.9125C18.0311 14.6209 17.6769 14.475 17.2602 14.475C16.8436 14.475 16.4894 14.6209 16.1977 14.9125C15.9061 15.2042 15.7602 15.5584 15.7602 15.975C15.7602 16.3917 15.9061 16.7459 16.1977 17.0375C16.4894 17.3292 16.8436 17.475 17.2602 17.475Z" fill="white"/>
</g>
</svg>
