<svg width="24" height="24" viewBox="0 0 24 24" fill="none" xmlns="http://www.w3.org/2000/svg">
<mask id="mask0_4227_1886" style="mask-type:alpha" maskUnits="userSpaceOnUse" x="0" y="0" width="24" height="24">
<rect width="24" height="24" fill="#D9D9D9"/>
</mask>
<g mask="url(#mask0_4227_1886)">
<path d="M15.9998 9V15.8C15.9998 16.0333 16.0998 16.1917 16.2998 16.275C16.4998 16.3583 16.6831 16.3167 16.8498 16.15L19.4248 13.575C19.6081 13.3917 19.7498 13.1792 19.8498 12.9375C19.9498 12.6958 19.9998 12.4417 19.9998 12.175V6C19.9998 5.45 19.8039 4.97917 19.4123 4.5875C19.0206 4.19583 18.5498 4 17.9998 4H11.8248C11.5581 4 11.3039 4.05 11.0623 4.15C10.8206 4.25 10.6081 4.39167 10.4248 4.575L7.84977 7.15C7.68311 7.31667 7.64144 7.5 7.72477 7.7C7.80811 7.9 7.96644 8 8.19977 8H14.9998C15.2831 8 15.5206 8.09583 15.7123 8.2875C15.9039 8.47917 15.9998 8.71667 15.9998 9ZM9.99977 15V21.8C9.99977 22.0333 10.0998 22.1917 10.2998 22.275C10.4998 22.3583 10.6831 22.3167 10.8498 22.15L13.4248 19.575C13.6081 19.3917 13.7498 19.1792 13.8498 18.9375C13.9498 18.6958 13.9998 18.4417 13.9998 18.175V12C13.9998 11.45 13.8039 10.9792 13.4123 10.5875C13.0206 10.1958 12.5498 10 11.9998 10H5.82477C5.55811 10 5.30394 10.05 5.06227 10.15C4.82061 10.25 4.60811 10.3917 4.42477 10.575L1.84977 13.15C1.68311 13.3167 1.64144 13.5 1.72477 13.7C1.80811 13.9 1.96644 14 2.19977 14H8.99977C9.28311 14 9.52061 14.0958 9.71227 14.2875C9.90394 14.4792 9.99977 14.7167 9.99977 15Z" fill="white"/>
</g>
</svg>
