<svg width="24" height="24" viewBox="0 0 24 24" fill="none" xmlns="http://www.w3.org/2000/svg">
<mask id="mask0_4193_2139" style="mask-type:alpha" maskUnits="userSpaceOnUse" x="0" y="0" width="24" height="24">
<rect width="24" height="24" fill="#D9D9D9"/>
</mask>
<g mask="url(#mask0_4193_2139)">
<path d="M19 3C19.55 3 20.0208 3.19583 20.4125 3.5875C20.8042 3.97917 21 4.45 21 5L21 11.25L14 11.25L14 3L19 3ZM12 3L12 11.25L3 11.25L3 5C3 4.45 3.19583 3.97916 3.5875 3.5875C3.97917 3.19583 4.45 3 5 3L12 3ZM21 13.25L21 19C21 19.55 20.8042 20.0208 20.4125 20.4125C20.0208 20.8042 19.55 21 19 21L5 21C4.45 21 3.97917 20.8042 3.5875 20.4125C3.19583 20.0208 3 19.55 3 19L3 13.25L21 13.25Z" fill="white"/>
</g>
</svg>
