<svg width="24" height="24" viewBox="0 0 24 24" fill="none" xmlns="http://www.w3.org/2000/svg">
<mask id="mask0_4230_3405" style="mask-type:alpha" maskUnits="userSpaceOnUse" x="0" y="0" width="24" height="24">
<rect width="24" height="24" fill="#D9D9D9"/>
</mask>
<g mask="url(#mask0_4230_3405)">
<path d="M15.6252 12.775L13.8502 11H15.0002C15.2835 11 15.521 11.0958 15.7127 11.2875C15.9044 11.4791 16.0002 11.7166 16.0002 12C16.0002 12.1666 15.9669 12.3166 15.9002 12.45C15.8335 12.5833 15.7419 12.6916 15.6252 12.775ZM20.5002 21.9C20.3169 22.0833 20.0835 22.175 19.8002 22.175C19.5169 22.175 19.2835 22.0833 19.1002 21.9L2.1002 4.89998C1.91686 4.71664 1.8252 4.48331 1.8252 4.19998C1.8252 3.91664 1.91686 3.68331 2.1002 3.49998C2.28353 3.31664 2.51686 3.22498 2.8002 3.22498C3.08353 3.22498 3.31686 3.31664 3.5002 3.49998L20.5002 20.5C20.6835 20.6833 20.7752 20.9166 20.7752 21.2C20.7752 21.4833 20.6835 21.7166 20.5002 21.9ZM7.0002 17C5.61686 17 4.4377 16.5125 3.4627 15.5375C2.4877 14.5625 2.0002 13.3833 2.0002 12C2.0002 10.85 2.3502 9.82498 3.0502 8.92498C3.7502 8.02498 4.6502 7.43331 5.7502 7.14998L7.6002 8.99998H7.0002C6.16686 8.99998 5.45853 9.29164 4.8752 9.87498C4.29186 10.4583 4.0002 11.1666 4.0002 12C4.0002 12.8333 4.29186 13.5416 4.8752 14.125C5.45853 14.7083 6.16686 15 7.0002 15H10.0002C10.2835 15 10.521 15.0958 10.7127 15.2875C10.9044 15.4791 11.0002 15.7166 11.0002 16C11.0002 16.2833 10.9044 16.5208 10.7127 16.7125C10.521 16.9041 10.2835 17 10.0002 17H7.0002ZM9.0002 13C8.71686 13 8.47936 12.9041 8.2877 12.7125C8.09603 12.5208 8.0002 12.2833 8.0002 12C8.0002 11.7166 8.09603 11.4791 8.2877 11.2875C8.47936 11.0958 8.71686 11 9.0002 11H9.6252L11.6002 13H9.0002ZM18.5002 15.8C18.3502 15.5666 18.296 15.3166 18.3377 15.05C18.3794 14.7833 18.5169 14.575 18.7502 14.425C19.1335 14.1416 19.4377 13.7916 19.6627 13.375C19.8877 12.9583 20.0002 12.5 20.0002 12C20.0002 11.1666 19.7085 10.4583 19.1252 9.87498C18.5419 9.29164 17.8335 8.99998 17.0002 8.99998H14.0002C13.7169 8.99998 13.4794 8.90414 13.2877 8.71248C13.096 8.52081 13.0002 8.28331 13.0002 7.99998C13.0002 7.71664 13.096 7.47914 13.2877 7.28748C13.4794 7.09581 13.7169 6.99998 14.0002 6.99998H17.0002C18.3835 6.99998 19.5627 7.48748 20.5377 8.46248C21.5127 9.43748 22.0002 10.6166 22.0002 12C22.0002 12.8166 21.8127 13.5791 21.4377 14.2875C21.0627 14.9958 20.5419 15.5833 19.8752 16.05C19.6419 16.2 19.3919 16.2541 19.1252 16.2125C18.8585 16.1708 18.6502 16.0333 18.5002 15.8Z" fill="white"/>
</g>
</svg>
