<svg width="24" height="24" viewBox="0 0 24 24" fill="none" xmlns="http://www.w3.org/2000/svg">
<mask id="mask0_4271_3971" style="mask-type:alpha" maskUnits="userSpaceOnUse" x="0" y="0" width="24" height="24">
<rect width="24" height="24" fill="#D9D9D9"/>
</mask>
<g mask="url(#mask0_4271_3971)">
<path d="M8.77627 11.5416L16.1263 18.8916C16.3763 19.1416 16.4971 19.4333 16.4888 19.7666C16.4804 20.0999 16.3513 20.3916 16.1013 20.6416C15.8513 20.8916 15.5596 21.0166 15.2263 21.0166C14.8929 21.0166 14.6013 20.8916 14.3513 20.6416L6.65127 12.9666C6.45127 12.7666 6.30127 12.5416 6.20127 12.2916C6.10127 12.0416 6.05127 11.7916 6.05127 11.5416C6.05127 11.2916 6.10127 11.0416 6.20127 10.7916C6.30127 10.5416 6.45127 10.3166 6.65127 10.1166L14.3513 2.41661C14.6013 2.16661 14.8971 2.04578 15.2388 2.05411C15.5804 2.06245 15.8763 2.19161 16.1263 2.44161C16.3763 2.69161 16.5013 2.98328 16.5013 3.31661C16.5013 3.64995 16.3763 3.94161 16.1263 4.19161L8.77627 11.5416Z" fill="white"/>
</g>
</svg>
