<svg width="24" height="24" viewBox="0 0 24 24" fill="none" xmlns="http://www.w3.org/2000/svg">
<mask id="mask0_4130_12086" style="mask-type:alpha" maskUnits="userSpaceOnUse" x="0" y="0" width="24" height="24">
<rect width="24" height="24" fill="#D9D9D9"/>
</mask>
<g mask="url(#mask0_4130_12086)">
<path d="M9.1 9.25003C9.46667 8.86669 9.89583 8.56252 10.3875 8.33752C10.8792 8.11252 11.4167 8.00002 12 8.00002C12.5833 8.00002 13.1208 8.11252 13.6125 8.33752C14.1042 8.56252 14.5333 8.86669 14.9 9.25003L19.95 6.42502L12.975 2.55002C12.675 2.36669 12.35 2.27502 12 2.27502C11.65 2.27502 11.325 2.36669 11.025 2.55002L4.05 6.42502L9.1 9.25003ZM11 21.45V15.875C10.1333 15.6417 9.41667 15.1709 8.85 14.4625C8.28333 13.7542 8 12.9334 8 12C8 11.8167 8.00833 11.6417 8.025 11.475C8.04167 11.3084 8.075 11.15 8.125 11L3 8.12502V15.825C3 16.1917 3.09167 16.5292 3.275 16.8375C3.45833 17.1459 3.70833 17.3917 4.025 17.575L11 21.45ZM12 14C12.55 14 13.0208 13.8042 13.4125 13.4125C13.8042 13.0209 14 12.55 14 12C14 11.45 13.8042 10.9792 13.4125 10.5875C13.0208 10.1959 12.55 10 12 10C11.45 10 10.9792 10.1959 10.5875 10.5875C10.1958 10.9792 10 11.45 10 12C10 12.55 10.1958 13.0209 10.5875 13.4125C10.9792 13.8042 11.45 14 12 14ZM13 21.45L19.975 17.575C20.2917 17.3917 20.5417 17.1459 20.725 16.8375C20.9083 16.5292 21 16.1917 21 15.825V8.12502L15.875 11C15.925 11.1667 15.9583 11.3292 15.975 11.4875C15.9917 11.6459 16 11.8167 16 12C16 12.9334 15.7167 13.7542 15.15 14.4625C14.5833 15.1709 13.8667 15.6417 13 15.875V21.45Z" fill="white"/>
</g>
</svg>
