<svg width="24" height="24" viewBox="0 0 24 24" fill="none" xmlns="http://www.w3.org/2000/svg">
<path d="M11 21V16C11 15.4477 11.4477 15 12 15C12.5523 15 13 15.4477 13 16V21C13 21.5523 12.5523 22 12 22C11.4477 22 11 21.5523 11 21Z" fill="white"/>
<path d="M15 21V14C15 13.4477 15.4477 13 16 13C16.5523 13 17 13.4477 17 14V21C17 21.5523 16.5523 22 16 22C15.4477 22 15 21.5523 15 21Z" fill="white"/>
<path d="M19 21V10C19 9.44772 19.4477 9 20 9C20.5523 9 21 9.44772 21 10V21C21 21.5523 20.5523 22 20 22C19.4477 22 19 21.5523 19 21Z" fill="white"/>
<path d="M21.2929 2.29302C21.6834 1.90249 22.3164 1.90249 22.7069 2.29302C23.0975 2.68354 23.0975 3.31655 22.7069 3.70708L14.0614 12.3536L14.0604 12.3526C13.9213 12.4918 13.7569 12.6033 13.5751 12.6788C13.3929 12.7544 13.1972 12.793 12.9999 12.793C12.8026 12.793 12.6069 12.7544 12.4247 12.6788C12.2427 12.6032 12.0776 12.4921 11.9384 12.3526C10.3154 10.7301 7.68453 10.7303 6.06168 12.3528L2.70693 15.7071C2.31639 16.0976 1.68337 16.0976 1.29287 15.7071C0.902389 15.3165 0.902366 14.6835 1.29287 14.293L7.94033 7.64653L8.0497 7.54692C8.31659 7.32831 8.65285 7.20805 9.00088 7.20805L9.14834 7.21489C9.49159 7.2489 9.81429 7.40063 10.0604 7.64653C11.684 9.26951 14.3157 9.26937 15.939 7.64622L21.2929 2.29302Z" fill="white"/>
<path d="M3 21V18C3 17.4477 3.44772 17 4 17C4.55228 17 5 17.4477 5 18V21C5 21.5523 4.55228 22 4 22C3.44772 22 3 21.5523 3 21Z" fill="white"/>
<path d="M7 21V14C7 13.4477 7.44772 13 8 13C8.55228 13 9 13.4477 9 14V21C9 21.5523 8.55228 22 8 22C7.44772 22 7 21.5523 7 21Z" fill="white"/>
</svg>
