<svg width="24" height="24" viewBox="0 0 24 24" fill="none" xmlns="http://www.w3.org/2000/svg">
<path fill-rule="evenodd" clip-rule="evenodd" d="M5.79135 3H18.4631C18.7655 3 19.0448 3.16023 19.1956 3.42018L22.8874 9.78445C23.0788 10.1145 23.022 10.5311 22.7489 10.7987L12.5871 20.758C12.2579 21.0807 11.7284 21.0807 11.3992 20.758L1.25112 10.8122C0.971692 10.5383 0.919368 10.1096 1.12485 9.77747L5.0711 3.39976C5.22479 3.15137 5.49751 3 5.79135 3ZM16.827 5.84143V7.62716H13.2173V8.86525C15.7525 8.99757 17.6546 9.54096 17.6687 10.1923L17.6686 11.5501C17.6545 12.2015 15.7525 12.7449 13.2173 12.8772V15.9156H10.8204V12.8772C8.28519 12.7449 6.38313 12.2015 6.36905 11.5501L6.36909 10.1923C6.38322 9.54096 8.28519 8.99757 10.8204 8.86525V7.62716H7.21071V5.84143H16.827ZM12.0189 11.9443C14.7243 11.9443 16.9857 11.4849 17.5391 10.8712C17.0698 10.3509 15.3723 9.94133 13.2173 9.82885V11.1252C12.8311 11.1453 12.4301 11.1559 12.0189 11.1559C11.6076 11.1559 11.2067 11.1453 10.8204 11.1252V9.82885C8.66537 9.94133 6.96787 10.3509 6.49858 10.8712C7.05198 11.4849 9.31333 11.9443 12.0189 11.9443Z" fill="white"/>
</svg>
